<?xml version="1.0" encoding="UTF-8" standalone="no"?>
<!-- Created with Inkscape (http://www.inkscape.org/) -->

<svg
   xmlns:dc="http://purl.org/dc/elements/1.1/"
   xmlns:cc="http://creativecommons.org/ns#"
   xmlns:rdf="http://www.w3.org/1999/02/22-rdf-syntax-ns#"
   xmlns:svg="http://www.w3.org/2000/svg"
   xmlns="http://www.w3.org/2000/svg"
   xmlns:sodipodi="http://sodipodi.sourceforge.net/DTD/sodipodi-0.dtd"
   xmlns:inkscape="http://www.inkscape.org/namespaces/inkscape"
   width="48.029999mm"
   height="39.900002mm"
   viewBox="0 0 48.029999 39.900002"
   version="1.1"
   id="svg8"
   inkscape:version="0.92.4 (5da689c313, 2019-01-14)"
   sodipodi:docname="logo2.svg"
   inkscape:export-filename="C:\Users\diginamicS01P03\Documents\HTTP-HTML\TP pizzeria\logo3.png"
   inkscape:export-xdpi="96"
   inkscape:export-ydpi="96">
  <defs
     id="defs2" />
  <sodipodi:namedview
     id="base"
     pagecolor="#ffffff"
     bordercolor="#666666"
     borderopacity="1.0"
     inkscape:pageopacity="0.0"
     inkscape:pageshadow="2"
     inkscape:zoom="1.979899"
     inkscape:cx="69.290089"
     inkscape:cy="136.16559"
     inkscape:document-units="mm"
     inkscape:current-layer="layer1"
     showgrid="false"
     inkscape:window-width="1920"
     inkscape:window-height="1017"
     inkscape:window-x="-8"
     inkscape:window-y="-8"
     inkscape:window-maximized="1" />
  <metadata
     id="metadata5">
    <rdf:RDF>
      <cc:Work
         rdf:about="">
        <dc:format>image/svg+xml</dc:format>
        <dc:type
           rdf:resource="http://purl.org/dc/dcmitype/StillImage" />
        <dc:title />
      </cc:Work>
    </rdf:RDF>
  </metadata>
  <g
     inkscape:label="Calque 1"
     inkscape:groupmode="layer"
     id="layer1"
     transform="translate(0,-257.1)">
    <path
       style="fill:#57cdd7;stroke-width:0.26458335;fill-opacity:1"
       d="m 21.139583,297.0335 c -4.53139,-0.69945 -7.879916,-2.42278 -11.2598265,-5.7949 -2.18317,-2.17813 -2.694318,-2.8661 -3.741873,-5.03629 -0.667311,-1.38246 -1.281885,-2.72191 -1.365719,-2.97657 -0.130388,-0.39608 -0.50202,-0.46302 -2.570288,-0.46302 -1.82769403,0 -2.38592003,-0.0807 -2.28700003,-0.33073 0.07197,-0.1819 0.577392,-1.44189 1.12315003,-2.79997 l 0.992289,-2.46924 -0.994153,-2.42555 c -0.54678403,-1.33406 -1.05220203,-2.57438 -1.12315103,-2.75628 -0.09747,-0.2499 0.463258,-0.33073 2.29432403,-0.33073 h 2.423321 l 0.299525,-0.8599 c 2.160858,-6.20353 7.5748655,-11.24825 13.8845815,-12.93753 2.85685,-0.76485 7.34904,-0.76485 10.20589,0 3.53757,0.9471 6.06079,2.44927 8.93501,5.31936 2.18191,2.17877 2.69492,2.86955 3.74187,5.03848 0.66731,1.38245 1.28189,2.7219 1.36572,2.97657 0.13039,0.39607 0.50202,0.46302 2.57029,0.46302 1.82883,0 2.38546,0.0806 2.28488,0.33073 -0.0731,0.1819 -0.584,1.42857 -1.13525,2.77039 l -1.00226,2.43966 1.00625,2.45513 c 0.55344,1.35032 1.0643,2.60396 1.13524,2.78586 0.0977,0.25058 -0.48696,0.33073 -2.41285,0.33073 -2.24015,0 -2.54185,0.0547 -2.54185,0.46099 0,0.25354 -0.55878,1.59299 -1.24173,2.97657 -1.05626,2.13983 -1.61941,2.89325 -3.77031,5.04415 -2.17231,2.17231 -2.88273,2.70053 -5.04212,3.74898 -1.38245,0.67122 -3.28745,1.40213 -4.23334,1.62425 -2.28407,0.53636 -5.58172,0.71821 -7.54062,0.41584 z m 8.19954,-3.01507 c 3.85991,-1.29873 7.07176,-3.72587 9.23213,-6.97656 1.20179,-1.80833 2.18935,-3.92862 1.94405,-4.17391 -0.0756,-0.0756 -0.34412,0.40393 -0.5968,1.06555 -0.75489,1.97668 -0.85843,1.98529 -3.7346,0.31018 -1.4062,-0.81898 -2.59636,-1.44942 -2.64479,-1.40099 -0.0484,0.0484 1.10068,0.77569 2.5536,1.61612 1.45291,0.84043 2.64166,1.58485 2.64166,1.65425 0,0.3483 -1.69153,2.48163 -2.82102,3.55783 -2.96787,2.82784 -6.38678,4.39689 -10.47429,4.80698 l -1.25677,0.1261 -0.0609,-5.98677 -0.0609,-5.98678 -0.0763,6.00623 -0.0763,6.00622 -1.38413,-0.14698 c -1.82254,-0.19353 -4.11257,-0.76935 -5.60655,-1.40974 -3.733946,-1.60056 -7.5469065,-5.49389 -9.0198065,-9.20994 -0.247527,-0.6245 -0.509582,-1.07592 -0.582343,-1.00316 -0.213664,0.21366 0.669203,2.20489 1.674143,3.77586 2.5708505,4.01889 6.5684565,6.8035 11.3566765,7.91071 2.45742,0.56825 6.40133,0.33091 8.99329,-0.5412 z m -2.77558,-1.8587 c 0,-0.48919 0.11521,-0.57035 0.66145,-0.46593 0.75042,0.14345 0.8392,-0.0599 0.27325,-0.62583 -0.25436,-0.25437 -0.33418,-0.65836 -0.23151,-1.17173 0.0862,-0.43093 0.0466,-0.78351 -0.088,-0.78351 -0.40292,0 -0.87974,0.60229 -0.87974,1.11125 0,0.33979 -0.20848,0.48022 -0.7276,0.49012 l -0.72761,0.0139 0.58265,0.40686 c 0.4723,0.32981 0.52703,0.49593 0.28898,0.87712 -0.16153,0.25864 -0.21395,0.67803 -0.1165,0.93197 0.1442,0.3758 0.25045,0.40091 0.57092,0.13495 0.21656,-0.17972 0.39375,-0.59334 0.39375,-0.91914 z m -4.69233,-1.19333 c 0.85895,-0.67565 1.22642,-1.76041 0.94893,-2.80123 -0.33053,-1.2398 -1.14542,-1.83057 -2.525,-1.83057 -0.97115,0 -1.30132,0.13436 -1.8243,0.74236 -2.0141,2.34154 0.994,5.78229 3.40037,3.88944 z m -1.65767,-0.39846 c 0,-0.47261 -0.1266,-0.48935 -0.83477,-0.11034 -0.45407,0.24301 -0.52123,0.21294 -0.4421,-0.19796 0.10559,-0.54829 0.97004,-0.65002 1.47531,-0.17362 0.39674,0.37407 0.43473,0.87879 0.0662,0.87879 -0.14552,0 -0.26459,-0.17859 -0.26459,-0.39687 z m 1.44755,-0.34512 c -0.30638,-0.21948 -0.32363,-0.84891 -0.0359,-1.30853 0.13185,-0.21061 0.0603,-0.33073 -0.19713,-0.33073 -0.26555,0 -0.3472,-0.14851 -0.23804,-0.43298 0.1139,-0.29681 0.0496,-0.39413 -0.20438,-0.30946 -0.40288,0.13429 -1.03671,-0.3708 -1.03671,-0.82616 0,-0.15592 0.11906,-0.28348 0.26458,-0.28348 0.14553,0 0.26459,0.1915 0.26459,0.42556 0,0.32532 0.16077,0.3852 0.68257,0.25424 0.58589,-0.14705 0.65979,-0.0995 0.52174,0.33539 -0.11903,0.37506 -0.004,0.55107 0.44191,0.67744 l 0.60273,0.17074 -0.57697,0.32508 c -0.45987,0.25911 -0.52208,0.42309 -0.30648,0.80795 0.30059,0.53657 0.21176,0.77741 -0.18254,0.49494 z m -3.42015,-1.09104 c -0.0835,-0.13505 0.088,-0.32164 0.38106,-0.41464 0.43338,-0.13755 0.48173,-0.26455 0.25911,-0.68051 -0.31355,-0.58589 0.12592,-0.70506 0.80326,-0.21781 0.33103,0.23812 0.31719,0.25968 -0.0834,0.1299 -0.38519,-0.12477 -0.44716,-0.0511 -0.3129,0.37192 0.10838,0.34145 0.0445,0.53406 -0.18113,0.5461 -0.19171,0.0102 -0.11044,0.12092 0.18061,0.24599 0.4725,0.20304 0.45292,0.22938 -0.18283,0.24598 -0.39159,0.0102 -0.78027,-0.0919 -0.86373,-0.22693 z m 12.73166,1.68295 c 0.22052,-0.57466 -0.33931,-1.11509 -0.74003,-0.71437 -0.33868,0.33868 -0.12886,1.12903 0.29972,1.12903 0.15465,0 0.35279,-0.18659 0.44031,-0.41466 z m -0.5613,-0.0962 c -0.0837,-0.13547 -0.0312,-0.32109 0.11667,-0.41249 0.1479,-0.0914 0.2689,0.0194 0.2689,0.2463 0,0.46475 -0.15877,0.53318 -0.38557,0.16619 z m 3.27332,-1.97534 c 0.16869,-0.20326 0.57022,-0.31413 0.89229,-0.24638 0.5341,0.11235 0.54321,0.0962 0.10354,-0.1834 -0.3853,-0.24505 -0.58442,-0.21393 -0.99218,0.15509 -0.48562,0.43948 -0.53559,0.43866 -1.03932,-0.0172 -0.29104,-0.26339 -0.52916,-0.65018 -0.52916,-0.85953 0,-0.20935 0.23812,-0.44291 0.52916,-0.51902 0.53724,-0.14049 0.66478,-0.38202 0.36175,-0.68505 -0.19214,-0.19214 -1.1555,0.9479 -1.1555,1.36742 0,0.30173 1.04251,1.35764 1.34041,1.35764 0.10027,0 0.32032,-0.1663 0.48901,-0.36957 z m -17.66758,-0.67154 c 0.5372,-0.44029 0.57896,-0.58691 0.29836,-1.0476 -0.17944,-0.29461 -0.25766,-0.87864 -0.17382,-1.29786 0.13379,-0.66896 0.0485,-0.80524 -0.69701,-1.11405 -0.773556,-0.32042 -0.888036,-0.30307 -1.281376,0.19411 -0.23757,0.30028 -0.69983,0.6262 -1.02725,0.72426 -1.05443,0.31581 -0.66677,2.4781 0.39452,2.20057 0.32333,-0.0846 0.6295,0.049 0.82308,0.35893 0.39364,0.63033 0.87855,0.62497 1.663496,-0.0184 z m -1.542476,-0.26197 c -0.0937,-0.35841 -0.34117,-0.4956 -0.83513,-0.46302 -0.61382,0.0405 -0.70193,-0.0533 -0.70193,-0.74745 0,-0.64575 0.10785,-0.79018 0.57841,-0.77457 0.39319,0.013 0.62781,-0.17759 0.73265,-0.59531 0.17683,-0.70457 0.61336,-0.78013 1.350346,-0.23375 0.45229,0.33532 0.47084,0.45065 0.15545,0.96634 -0.30908,0.50537 -0.30002,0.6181 0.0661,0.82302 0.53397,0.29882 0.53619,0.59061 0.009,1.11828 -0.566246,0.56625 -1.193236,0.52295 -1.354446,-0.0935 z m 21.354736,0.23474 c 0.38443,-0.71831 0.0836,-1.57751 -0.55234,-1.57751 -0.36526,0 -0.51134,-0.18387 -0.51134,-0.64363 0,-0.76656 -0.78658,-1.10793 -1.57751,-0.68464 -0.29653,0.1587 -0.53916,0.34808 -0.53916,0.42084 0,0.0728 0.24743,-1.3e-4 0.54984,-0.16197 0.76146,-0.40752 1.30225,-0.13169 1.30225,0.66423 0,0.49682 0.13878,0.66976 0.53747,0.66976 0.676,0 0.91531,0.58587 0.53192,1.30224 -0.16184,0.30241 -0.23473,0.54984 -0.16197,0.54984 0.0728,0 0.26214,-0.24262 0.42084,-0.53916 z m -5.10013,-0.57252 c 0.62859,-0.52128 1.09469,-1.84344 0.93828,-2.66161 -0.1985,-1.03839 -1.49523,-2.04755 -2.63103,-2.04755 -1.84327,0 -3.10819,2.2873 -2.20165,3.98119 0.64245,1.20043 2.8313,1.60959 3.8944,0.72797 z m -1.62539,-0.16803 c -0.2507,-0.40564 0.53668,-1.19338 0.94227,-0.94271 0.21623,0.13363 0.25459,0.0441 0.12536,-0.29271 -0.11139,-0.2903 -0.0497,-0.57188 0.15348,-0.70082 0.26445,-0.1678 0.26644,-0.21644 0.009,-0.21959 -0.1819,-0.002 -0.33073,-0.19257 -0.33073,-0.42298 0,-0.23041 -0.14777,-0.36967 -0.32837,-0.30947 -0.36848,0.12283 -0.99456,-0.40609 -0.99456,-0.8402 0,-0.42887 0.4511,-0.3394 0.62923,0.1248 0.12703,0.33104 0.2643,0.35068 0.7256,0.1038 0.52427,-0.28058 0.55593,-0.2527 0.40333,0.35527 -0.13327,0.53102 -0.0499,0.69256 0.42719,0.82788 l 0.59278,0.16813 -0.63106,0.35353 c -0.40781,0.22846 -0.52481,0.4192 -0.33073,0.53915 0.50961,0.31495 0.33139,0.75339 -0.24497,0.60267 -0.38979,-0.10194 -0.60372,0.0153 -0.75017,0.41125 -0.13772,0.37227 -0.26807,0.45161 -0.39762,0.242 z m -1.35639,-0.81562 c 0.11881,-0.37435 0.002,-0.55848 -0.44519,-0.70056 l -0.60637,-0.19272 0.59531,-0.26592 c 0.639,-0.28544 0.75562,-0.58393 0.33073,-0.84652 -0.14552,-0.0899 -0.26458,-0.26441 -0.26458,-0.38772 0,-0.27361 1.01061,-0.0358 1.20849,0.28433 0.0781,0.12629 -0.0624,0.15122 -0.31211,0.0554 -0.31558,-0.1211 -0.39351,-0.0763 -0.25555,0.14691 0.10916,0.17662 0.0546,0.49451 -0.12128,0.70642 -0.25717,0.30987 -0.23736,0.38528 0.1012,0.38528 0.2849,0 0.36605,0.14313 0.25105,0.44282 -0.13387,0.34887 -0.0619,0.40486 0.33903,0.26394 0.49713,-0.17472 0.49702,-0.16964 -0.005,0.21865 -0.69925,0.54122 -1.00957,0.49928 -0.8161,-0.11031 z m -14.611446,-2.65878 c 1.43976,-0.80694 2.19674,-1.43919 0.92604,-0.77346 -1.64303,0.86079 -4.6963605,2.67974 -4.6963605,2.79773 0,0.0739 0.50602,-0.15954 1.1244795,-0.51866 0.618471,-0.35912 1.809091,-1.03664 2.645841,-1.50561 z m 9.143896,1.11608 c -0.049,-0.25466 -0.2645,-0.46302 -0.4788,-0.46302 -0.2143,0 -0.42975,0.20836 -0.4788,0.46302 -0.0626,0.32487 0.0803,0.46302 0.4788,0.46302 0.3985,0 0.54136,-0.13815 0.4788,-0.46302 z m -0.74338,-0.0662 c 0,-0.14552 0.11906,-0.26458 0.26458,-0.26458 0.14552,0 0.26458,0.11906 0.26458,0.26458 0,0.14552 -0.11906,0.26459 -0.26458,0.26459 -0.14552,0 -0.26458,-0.11907 -0.26458,-0.26459 z m 17.39642,-1.25663 c 0.15633,-0.46951 -0.73317,-0.75009 -1.0015,-0.31591 -0.12124,0.19616 -0.15765,0.45823 -0.0809,0.58237 0.19582,0.31685 0.95002,0.13119 1.08242,-0.26646 z m -0.72768,-0.0819 c 0,-0.15411 0.11907,-0.20661 0.26459,-0.11667 0.14552,0.0899 0.26458,0.21602 0.26458,0.28019 0,0.0642 -0.11906,0.11668 -0.26458,0.11668 -0.14552,0 -0.26459,-0.12609 -0.26459,-0.2802 z m -17.77871,-0.31901 c 0.21853,-0.26332 -0.0628,-0.33766 -1.32,-0.34873 -1.38516,-0.0122 -1.53428,0.0323 -1.12081,0.33466 0.60644,0.44343 2.07742,0.45192 2.44081,0.0141 z m 26.77455,-1.17674 c 0,-0.10366 -0.43368,-1.23475 -0.96373,-2.51354 l -0.96372,-2.32506 0.96372,-2.32507 c 0.53005,-1.27878 0.96373,-2.40988 0.96373,-2.51354 0,-0.10366 -10.4775,-0.18848 -23.28334,-0.18848 -12.805826,0 -23.28332353,0.0848 -23.28332353,0.18848 0,0.10366 0.43367603,1.23476 0.96372503,2.51354 l 0.963725,2.32507 -0.963725,2.32506 c -0.530049,1.27879 -0.96372503,2.40988 -0.96372503,2.51354 0,0.10367 10.47749753,0.18848 23.28332353,0.18848 12.80584,0 23.28334,-0.0848 23.28334,-0.18848 z M 5.4630255,277.53722 c -0.215203,-0.45602 -0.200525,-0.59532 0.06273,-0.59532 0.189021,0 0.413243,-0.18129 0.498272,-0.40287 0.134264,-0.34989 0.217744,-0.34119 0.634692,0.0661 0.264052,0.25797 0.437157,0.70715 0.384677,0.99819 -0.134422,0.74547 -1.21877,0.70009 -1.580373,-0.0661 z m 35.3289975,0.0661 c -0.12191,-0.67604 0.73731,-1.60855 0.9563,-1.03787 0.0794,0.20703 0.31557,0.37641 0.52473,0.37641 0.30122,0 0.32187,0.12377 0.0993,0.59532 -0.3616,0.76623 -1.44595,0.81161 -1.58037,0.0661 z M 8.7045165,268.78465 c 0.0475,-0.0481 1.2437,0.58081 2.6582905,1.39754 1.41459,0.81672 2.61152,1.44543 2.65983,1.39711 0.0483,-0.0483 -1.03838,-0.73673 -2.41487,-1.52982 -1.376481,-0.7931 -2.5036005,-1.58013 -2.5047105,-1.74896 -0.003,-0.49378 1.9164005,-2.78129 3.5732205,-4.25799 2.50369,-2.23151 5.974626,-3.69447 9.852366,-4.15268 l 1.38906,-0.16413 0.0609,6.02838 0.0609,6.02839 0.0763,-5.98622 0.0763,-5.98622 1.25189,0.12554 c 3.02518,0.30336 5.76635,1.28768 8.21299,2.94916 1.61649,1.09774 4.10686,3.64295 4.86728,4.97445 l 0.45129,0.79023 -2.49688,1.41712 c -1.37329,0.77942 -2.44916,1.46485 -2.39081,1.52319 0.0583,0.0583 1.13133,-0.4995 2.38443,-1.23965 1.2531,-0.74015 2.40037,-1.34573 2.54949,-1.34573 0.14912,0 0.5197,0.59812 0.8235,1.32915 0.3038,0.73103 0.60977,1.27175 0.67992,1.2016 0.21015,-0.21015 -0.68456,-2.21673 -1.6875,-3.78457 -2.19441,-3.43041 -5.50199,-6.00076 -9.49599,-7.37942 -1.83769,-0.63434 -2.53513,-0.73254 -5.29167,-0.74505 -2.80848,-0.0127 -3.44394,0.0737 -5.50484,0.74923 -3.824596,1.25358 -6.998366,3.61297 -9.2230265,6.85643 -1.1602,1.69151 -2.070241,3.53941 -2.045675,4.15388 0.0087,0.21828 0.314193,-0.25797 0.678815,-1.05833 0.36462,-0.80036 0.70178,-1.49455 0.74925,-1.54263 z m 11.5090265,2.48429 c 0,-0.48847 -0.44177,-0.76796 -0.65879,-0.41681 -0.29828,0.48263 -0.7041,0.2825 -0.53129,-0.26199 0.12565,-0.39588 0.0124,-0.59431 -0.44519,-0.78024 l -0.61369,-0.24935 0.59531,-0.17666 c 0.67094,-0.1991 0.73655,-0.39704 0.28223,-0.85137 -0.45633,-0.45632 -0.0879,-0.67809 0.55501,-0.33403 0.47536,0.2544 0.55183,0.22071 0.55183,-0.24315 0,-0.29616 0.11906,-0.53848 0.26458,-0.53848 0.33403,0 0.33316,0.17123 -0.004,0.80129 -0.17156,0.32058 -0.42624,0.44144 -0.70486,0.33452 -0.29977,-0.11503 -0.37415,-0.0669 -0.23777,0.15374 0.10916,0.17662 0.0546,0.49451 -0.12129,0.70642 -0.25717,0.30987 -0.23735,0.38528 0.10121,0.38528 0.28394,0 0.36597,0.14332 0.25202,0.44028 -0.12039,0.31372 -0.0715,0.38003 0.17018,0.23069 0.19186,-0.11858 0.42162,-0.0761 0.52912,0.0978 0.12932,0.20925 0.42553,0.0722 0.92767,-0.42913 0.57652,-0.57561 0.64737,-0.7546 0.32426,-0.81925 -0.2596,-0.052 -0.35257,-0.24131 -0.24986,-0.50896 0.12208,-0.31813 0.0513,-0.38314 -0.27925,-0.25631 -0.26477,0.1016 -0.44274,0.0403 -0.44263,-0.1525 1.1e-4,-0.17734 0.30187,-0.33985 0.67059,-0.36115 0.52918,-0.0306 0.63904,0.0601 0.52156,0.43022 -0.10525,0.33163 0.0277,0.51894 0.45389,0.63968 l 0.60274,0.17073 -0.57698,0.32509 c -0.46856,0.264 -0.52432,0.41908 -0.29676,0.82531 0.25113,0.44831 0.20804,0.48212 -0.41521,0.32569 -0.57886,-0.14528 -0.69543,-0.085 -0.69543,0.35967 0,0.76201 1.19236,0.71895 1.6921,-0.0611 0.76209,-1.18956 0.63684,-2.40811 -0.34883,-3.39379 -1.06741,-1.06741 -2.41287,-1.06741 -3.48029,0 -1.39571,1.39571 -0.85669,3.98911 0.82911,3.98911 0.50165,0 0.77874,-0.13566 0.77874,-0.38126 z m 6.17307,-1.04891 c 0.37573,-0.23031 0.55082,-0.18416 0.85487,0.22532 0.29674,0.39962 0.45326,0.44406 0.69888,0.19844 0.51151,-0.5115 0.9418,-0.36723 1.22607,0.41109 0.14616,0.40019 0.27515,0.57095 0.28663,0.37949 0.0115,-0.19147 -0.10915,-0.59111 -0.26809,-0.88809 -0.22397,-0.41849 -0.45975,-0.50582 -1.04807,-0.38815 -0.4175,0.0835 -0.83027,0.0367 -0.91726,-0.1041 -0.49381,-0.79899 -1.74948,0.12937 -1.68806,1.24804 0.0188,0.34208 0.0777,0.29716 0.20445,-0.156 0.098,-0.35003 0.39071,-0.76675 0.65058,-0.92604 z m 11.36061,1.25662 c -0.17913,-0.0725 -0.53632,-0.0769 -0.79375,-0.01 -0.25743,0.0671 -0.11087,0.12639 0.32569,0.13178 0.43656,0.005 0.64719,-0.0495 0.46806,-0.12197 z m -5.62743,-1.94312 c 0.32758,-0.32758 0.52916,-0.88194 0.52916,-1.45521 0,-1.20816 -0.76869,-1.98437 -1.96517,-1.98437 -1.02532,0 -2.00358,0.96887 -2.00358,1.98437 0,0.32455 0.24677,0.90381 0.54837,1.28724 0.68712,0.87353 2.10338,0.95581 2.89122,0.16797 z m -1.32292,-0.80936 c 0,-0.15411 0.11906,-0.20662 0.26458,-0.11668 0.14552,0.0899 0.26459,0.21602 0.26459,0.2802 0,0.0642 -0.11907,0.11667 -0.26459,0.11667 -0.14552,0 -0.26458,-0.12609 -0.26458,-0.28019 z m -1.19063,-0.51356 c 0.0899,-0.14552 0.21603,-0.26458 0.2802,-0.26458 0.0642,0 0.11668,0.11906 0.11668,0.26458 0,0.14552 -0.12609,0.26459 -0.2802,0.26459 -0.15411,0 -0.20661,-0.11907 -0.11668,-0.26459 z m 1.98438,0.0283 c 0,-0.12995 0.17253,-0.30248 0.3834,-0.3834 0.25625,-0.0983 0.33461,-0.02 0.23628,0.23628 -0.1606,0.4185 -0.61968,0.52749 -0.61968,0.14712 z m -0.61736,-0.2047 c -0.24663,-0.24662 -0.22015,-0.61736 0.0441,-0.61736 0.12126,0 0.22048,0.1786 0.22048,0.39688 0,0.44962 -0.0193,0.46573 -0.26458,0.22048 z m 4.58611,0.59804 c 0,-0.77101 0.0765,-0.88127 0.52917,-0.76289 0.669,0.17495 0.7233,-0.5932 0.0913,-1.29157 -0.47024,-0.51961 -1.67878,-0.66622 -1.67878,-0.20366 0,0.15411 -0.12007,0.206 -0.26683,0.1153 -0.2927,-0.1809 -0.80912,0.92498 -0.59829,1.2812 0.0721,0.12182 0.35578,0.16273 0.63039,0.0909 0.41719,-0.10982 0.49931,0.0177 0.49931,0.7707 0,0.62474 0.12177,0.90127 0.39687,0.90127 0.27511,0 0.39688,-0.27653 0.39688,-0.90127 z m -19.24843,-0.71634 c 0.85137,-1.02543 0.55791,-2.41624 -0.6406,-3.03602 -1.415246,-0.73185 -2.865126,0.16133 -2.865126,1.76502 0,1.91054 2.28648,2.7395 3.505726,1.271 z m -1.918226,-0.23447 c 0,-0.14552 0.12609,-0.26459 0.28019,-0.26459 0.15411,0 0.20662,0.11907 0.11668,0.26459 -0.0899,0.14552 -0.21602,0.26458 -0.2802,0.26458 -0.0642,0 -0.11667,-0.11906 -0.11667,-0.26458 z m -0.52512,-0.67704 c 0.006,-0.36572 0.47577,-1.048 0.62139,-0.90238 0.0688,0.0688 -0.0438,0.35597 -0.2502,0.63821 -0.20638,0.28225 -0.37342,0.40113 -0.37119,0.26417 z m 1.45116,-0.3813 c 0.0899,-0.14552 0.216016,-0.26458 0.280196,-0.26458 0.0642,0 0.11667,0.11906 0.11667,0.26458 0,0.14552 -0.12609,0.26459 -0.2802,0.26459 -0.154096,0 -0.206606,-0.11907 -0.116666,-0.26459 z m 11.655906,0.50612 c 0.24896,-0.40283 -0.29168,-0.87315 -0.78575,-0.68356 -0.23771,0.0912 -0.34454,0.32852 -0.25406,0.5643 0.18057,0.47058 0.78018,0.53935 1.03981,0.11926 z m -0.67571,-0.24153 c 0,-0.14552 0.11907,-0.26459 0.26459,-0.26459 0.14552,0 0.26458,0.11907 0.26458,0.26459 0,0.14552 -0.11906,0.26458 -0.26458,0.26458 -0.14552,0 -0.26459,-0.11906 -0.26459,-0.26458 z m -5.82083,-2.10106 c 0,-0.13693 -0.11906,-0.32255 -0.26458,-0.41248 -0.14552,-0.0899 -0.26458,0.0221 -0.26458,0.24896 0,0.22687 0.11906,0.41249 0.26458,0.41249 0.14552,0 0.26458,-0.11203 0.26458,-0.24897 z m 1.05834,-0.41248 c 0,-0.22812 -0.23879,-0.39688 -0.56157,-0.39688 -0.46917,0 -0.50737,0.0653 -0.23218,0.39688 0.18115,0.21828 0.43386,0.39687 0.56156,0.39687 0.1277,0 0.23219,-0.17859 0.23219,-0.39687 z m 6.86423,-1.18264 c 0.79642,-0.42623 0.67875,-0.88952 -0.18351,-0.72245 -0.45874,0.0889 -0.89869,-0.0126 -1.19062,-0.27475 -0.42695,-0.38333 -0.46302,-0.36937 -0.46302,0.17922 0,0.36533 -0.19717,0.64651 -0.51087,0.72854 -0.28097,0.0735 -0.57489,0.30046 -0.65315,0.5044 -0.17789,0.46356 1.04078,0.51968 1.32426,0.061 0.12487,-0.20204 0.27738,-0.087 0.43838,0.33073 l 0.24691,0.64055 0.22376,-0.57802 c 0.12308,-0.31791 0.46862,-0.70905 0.76786,-0.8692 z m -8.18715,0.52118 c 0,-0.14552 -0.12609,-0.26459 -0.2802,-0.26459 -0.15411,0 -0.19617,-0.14882 -0.0935,-0.33073 0.14311,-0.25348 0.10889,-0.25887 -0.14654,-0.023 -0.18329,0.16922 -0.25326,0.43711 -0.15549,0.59531 0.22301,0.36084 0.67571,0.37629 0.67571,0.0231 z"
       id="path3764"
       inkscape:connector-curvature="0"
       sodipodi:nodetypes="scccscscccscccccccscccccsscscsscccccscssccccccccccccccccccssccccccccscscsccccsccccsccsssccccccccccccccccccccsscccsccccccscssscccccccccccccscccccccccsscscsscscccssccccccscscsccccccccccccccsccccscccccccscccscscssssscccccscssscccccssccssscccssscsccsccccscccccccccccccccccccscsssssscccccccccccccccssccccscccccccccccccccscccsccccccccccccccccccsssscsscssscssscsccscssccccscccssccccscsscsscscccssscccccsssssscssssscsscccscccccccccsccccc" />
    <flowRoot
       xml:space="preserve"
       id="flowRoot3766"
       style="font-style:normal;font-weight:normal;font-size:40px;line-height:1.25;font-family:sans-serif;letter-spacing:0px;word-spacing:0px;fill:#000000;fill-opacity:1;stroke:none"
       transform="matrix(0.26458333,0,0,0.26458333,-25.395977,171.04713)"><flowRegion
         id="flowRegion3768"><rect
           id="rect3770"
           width="131.82487"
           height="45.456871"
           x="124.75384"
           y="372.48141" /></flowRegion><flowPara
         id="flowPara3772"
         style="font-style:normal;font-variant:normal;font-weight:normal;font-stretch:normal;font-size:21.33333397px;line-height:1.25;font-family:'Lobster Two';-inkscape-font-specification:'Lobster Two';letter-spacing:1.10000002px">La Florentina</flowPara></flowRoot>  </g>
</svg>
